<svg width="14" height="14" viewBox="0 0 14 14" fill="none" xmlns="http://www.w3.org/2000/svg">
<g clip-path="url(#clip0)">
<path d="M11.6666 13.3583C11.6083 13.3583 11.5499 13.3583 11.4916 13.3583C9.62494 13.125 7.75827 12.4833 6.18327 11.4917C4.72494 10.5583 3.4416 9.27501 2.50827 7.81668C1.45827 6.24168 0.816602 4.37501 0.641602 2.50835C0.641602 2.04168 0.758268 1.57501 1.04993 1.22501C1.3416 0.875014 1.74993 0.641681 2.2166 0.583348C2.27493 0.583348 2.33327 0.583348 2.3916 0.583348H4.1416C5.0166 0.583348 5.77494 1.22501 5.8916 2.10001C5.94994 2.62501 6.0666 3.15001 6.2416 3.61668C6.47494 4.25835 6.29993 4.95835 5.83327 5.48335L5.42494 5.89168C6.12494 6.94168 6.99993 7.87501 8.10827 8.57502L8.5166 8.16668C8.98327 7.70002 9.7416 7.52501 10.3833 7.75835C10.8499 7.93335 11.3749 8.05001 11.8999 8.10835C12.7749 8.22501 13.4166 8.98335 13.4166 9.85835V11.6083C13.4166 12.075 13.2416 12.5417 12.8916 12.8333C12.5416 13.125 12.1333 13.3583 11.6666 13.3583ZM4.1416 1.75001H2.3916C2.2166 1.75001 2.0416 1.86668 1.92493 1.98335C1.8666 2.10001 1.80827 2.21668 1.80827 2.39168C1.98327 4.08335 2.5666 5.71668 3.49994 7.17501C4.37494 8.51668 5.48327 9.68335 6.82493 10.5C8.28327 11.4333 9.9166 12.0167 11.6083 12.1917C11.8416 12.1917 11.9583 12.1333 12.0749 12.0167C12.1916 11.9 12.2499 11.7833 12.2499 11.6083V9.85835C12.2499 9.56668 12.0166 9.33335 11.7249 9.27501C11.1416 9.21668 10.5583 9.04168 9.97494 8.80835C9.7416 8.75002 9.50827 8.75002 9.33327 8.92502L8.57493 9.68335C8.39994 9.85835 8.10827 9.91668 7.87494 9.80001C6.29993 8.92501 5.0166 7.64168 4.1416 6.06668C4.08327 5.83335 4.1416 5.54168 4.3166 5.36668L5.07493 4.60835C5.1916 4.49168 5.24994 4.20001 5.1916 4.02501C4.95827 3.44168 4.8416 2.85835 4.72494 2.27501C4.72494 1.98335 4.43327 1.75001 4.1416 1.75001ZM11.0833 5.83335C10.7916 5.83335 10.5583 5.65835 10.4999 5.36668C10.3249 4.43335 9.5666 3.73335 8.63327 3.50001C8.3416 3.44168 8.10827 3.15001 8.1666 2.80001C8.22494 2.50835 8.5166 2.27501 8.8666 2.33335C10.2666 2.62501 11.3749 3.67501 11.6083 5.07501C11.6666 5.36668 11.4916 5.71668 11.1416 5.77501C11.1416 5.77501 11.1416 5.83335 11.0833 5.83335ZM13.4166 5.77501C13.1249 5.77501 12.8916 5.54168 12.8333 5.25001C12.5999 3.09168 10.9083 1.40001 8.6916 1.10835C8.39993 1.05001 8.1666 0.758348 8.1666 0.466681C8.1666 0.175014 8.5166 -0.0583191 8.80827 -0.0583191C11.5499 0.233348 13.6499 2.33335 13.9416 5.07501C13.9999 5.36668 13.7666 5.65835 13.4166 5.71668C13.4749 5.77501 13.4166 5.77501 13.4166 5.77501Z" fill="white"/>
</g>
<defs>
<clipPath id="clip0">
<rect width="14" height="14" fill="white"/>
</clipPath>
</defs>
</svg>
